# xmcd
#
# Track frame offsets: 
#        150
#        22491
#        38292
#        61682
#        78631
#        93785
#        110677
#        126021
#        143237
#        157245
#
# Disc length: 2378 seconds
#
# Revision: 0
# Processed by: cddbd v1.5.2PL0 Copyright (c) Steve Scherf et al.
# Submitted via: ExactAudioCopy v1.0b4
#
DISCID=8109480a
DTITLE=Koko Taylor  - Queen Of The Blues (LP)
DYEAR=1985
DGENRE=Blues
TTITLE0=Evil
TTITLE1=Beer Bottle Boogie
TTITLE2=I Cried Like A Baby
TTITLE3=I Can Love You Like A Woman (Or I Can Fight You Like A Man)
TTITLE4=Flamin' Mamie
TTITLE5=Something Inside Me
TTITLE6=The Hunter
TTITLE7=Queen Bee
TTITLE8=I Don't Care No More
TTITLE9=Come To Mama
EXTD=
EXTT0=
EXTT1=
EXTT2=
EXTT3=
EXTT4=
EXTT5=
EXTT6=
EXTT7=
EXTT8=
EXTT9=
PLAYORDER=
